<svg id="Capa_1" enable-background="new 0 0 512 512" height="512" viewBox="0 0 512 512" width="512" xmlns="http://www.w3.org/2000/svg" xmlns:xlink="http://www.w3.org/1999/xlink"><linearGradient id="SVGID_1_" gradientUnits="userSpaceOnUse" x1="74.981" x2="437.019" y1="437.019" y2="74.981"><stop offset="0" stop-color="#00aa45"/><stop offset="1" stop-color="#d3ff33"/></linearGradient><radialGradient id="SVGID_2_" cx="256" cy="256" gradientUnits="userSpaceOnUse" r="256"><stop offset="0" stop-color="#00aa45"/><stop offset=".109" stop-color="#0fb044" stop-opacity=".891"/><stop offset=".3171" stop-color="#35bf40" stop-opacity=".683"/><stop offset=".6028" stop-color="#73d83b" stop-opacity=".397"/><stop offset=".9518" stop-color="#c7fa34" stop-opacity=".048"/><stop offset="1" stop-color="#d3ff33" stop-opacity="0"/></radialGradient><radialGradient id="SVGID_3_" cx="260.632" cy="108.433" gradientUnits="userSpaceOnUse" r="235.004"><stop offset="0" stop-color="#fff"/><stop offset=".6453" stop-color="#eaedc2"/><stop offset=".7095" stop-color="#e8eeb9"/><stop offset=".8157" stop-color="#e4f1a0"/><stop offset=".9501" stop-color="#def777"/><stop offset="1" stop-color="#dbf966"/></radialGradient><linearGradient id="SVGID_4_" gradientUnits="userSpaceOnUse" x1="256" x2="256" y1="130.587" y2="48.654"><stop offset="0" stop-color="#95e12e"/><stop offset=".1262" stop-color="#99e236" stop-opacity=".874"/><stop offset=".317" stop-color="#a5e34a" stop-opacity=".683"/><stop offset=".5489" stop-color="#b9e66d" stop-opacity=".451"/><stop offset=".8106" stop-color="#d4ea9b" stop-opacity=".189"/><stop offset="1" stop-color="#eaedc2" stop-opacity="0"/></linearGradient><linearGradient id="SVGID_5_" gradientUnits="userSpaceOnUse" x1="43.355" x2="522.926" y1="483.17" y2="3.599"><stop offset="0" stop-color="#eaedc2"/><stop offset=".9193" stop-color="#fff"/></linearGradient><linearGradient id="lg1"><stop offset="0" stop-color="#23b842"/><stop offset=".9944" stop-color="#84dd39"/></linearGradient><linearGradient id="SVGID_6_" gradientUnits="userSpaceOnUse" x1="181.193" x2="349.886" xlink:href="#lg1" y1="470.861" y2="302.168"/><linearGradient id="lg2"><stop offset="0" stop-color="#84dd39"/><stop offset=".183" stop-color="#8ade3f" stop-opacity=".817"/><stop offset=".4343" stop-color="#9ae151" stop-opacity=".566"/><stop offset=".7236" stop-color="#b4e76e" stop-opacity=".276"/><stop offset="1" stop-color="#d4ed90" stop-opacity="0"/></linearGradient><linearGradient id="SVGID_7_" gradientUnits="userSpaceOnUse" x1="173.79" x2="302.688" xlink:href="#lg2" y1="478.264" y2="349.366"/><linearGradient id="SVGID_8_" gradientUnits="userSpaceOnUse" x1="180.6" x2="350.63" xlink:href="#lg1" y1="388.218" y2="218.189"/><linearGradient id="lg3"><stop offset=".0615" stop-color="#dbf966"/><stop offset=".1538" stop-color="#def777"/><stop offset=".4025" stop-color="#e4f1a0"/><stop offset=".5992" stop-color="#e8eeb9"/><stop offset=".7181" stop-color="#eaedc2"/><stop offset="1" stop-color="#f1f3d6"/></linearGradient><linearGradient id="SVGID_9_" gradientUnits="userSpaceOnUse" x1="180.473" x2="350.789" xlink:href="#lg3" y1="305.11" y2="134.794"/><linearGradient id="SVGID_10_" gradientUnits="userSpaceOnUse" x1="180.812" x2="350.364" xlink:href="#lg3" y1="221.536" y2="51.983"/><linearGradient id="SVGID_11_" gradientUnits="userSpaceOnUse" x1="173.113" x2="303.893" xlink:href="#lg2" y1="229.235" y2="98.454"/><linearGradient id="SVGID_12_" gradientUnits="userSpaceOnUse" x1="172.998" x2="303.585" xlink:href="#lg2" y1="395.82" y2="265.233"/><linearGradient id="SVGID_13_" gradientUnits="userSpaceOnUse" x1="172.772" x2="303.987" xlink:href="#lg2" y1="312.811" y2="181.596"/><g><circle cx="256" cy="256" fill="url(#SVGID_1_)" r="256"/><circle cx="256" cy="256" fill="url(#SVGID_2_)" r="256"/><path d="m308.5 42.04c-35-1.47-70-1.47-105 0-8.279.353-15.107 7.549-15.241 15.96-.309 20.32-.568 40.64-.778 60.96 45.679-1.53 91.358-1.53 137.037 0-.21-20.32-.469-40.64-.778-60.96-.132-8.41-6.963-15.607-15.24-15.96z" fill="url(#SVGID_3_)"/><path d="m308.5 42.04c-35-1.47-70-1.47-105 0-8.279.353-15.107 7.549-15.241 15.96-.309 20.32-.568 40.64-.778 60.96 45.679-1.53 91.358-1.53 137.037 0-.21-20.32-.469-40.64-.778-60.96-.132-8.41-6.963-15.607-15.24-15.96z" fill="url(#SVGID_4_)"/><path d="m354.463 90.02c-65.642-3.943-131.284-3.943-196.926 0-8.361.51-15.292 7.708-15.457 15.98-2.15 110-1.811 220 1.019 330 .218 8.272 7.122 15.606 15.401 16.26 65 5.07 130 5.07 195 0 8.278-.654 15.183-7.988 15.401-16.26 2.829-110 3.169-220 1.019-330-.165-8.272-7.096-15.471-15.457-15.98z" fill="url(#SVGID_5_)"/><path d="m172.934 422.993c55.377 3.092 110.755 3.092 166.132 0 .304-17.702.561-35.404.772-53.107-55.892 2.151-111.784 2.151-167.676 0 .211 17.703.468 35.405.772 53.107z" fill="url(#SVGID_6_)"/><path d="m202.648 370.847c-10.162-.249-20.324-.569-30.487-.96.211 17.702.468 35.404.772 53.107 55.377 3.092 110.755 3.092 166.132 0-49.036-2.074-96.264-21.07-136.417-52.147z" fill="url(#SVGID_7_)"/><path d="m171.845 339.54c56.103 1.614 112.207 1.614 168.31 0 .159-17.702.271-35.404.337-53.106-56.328.672-112.656.672-168.983 0 .065 17.701.177 35.404.336 53.106z" fill="url(#SVGID_8_)"/><path d="m171.44 256.087c56.373.135 112.746.135 169.119 0 .013-17.702-.02-35.405-.099-53.107-56.307-.807-112.615-.807-168.921 0-.079 17.702-.112 35.404-.099 53.107z" fill="url(#SVGID_9_)"/><path d="m172.255 119.527c-.224 17.702-.403 35.404-.535 53.107 56.187-1.344 112.373-1.344 168.559 0-.132-17.702-.311-35.405-.535-53.107-55.829-2.286-111.659-2.286-167.489 0z" fill="url(#SVGID_10_)"/><path d="m202.708 118.507c-10.151.264-20.302.604-30.453 1.02-.224 17.702-.403 35.404-.535 53.107 56.187-1.344 112.373-1.344 168.559 0-49.898-6.064-97.958-25.11-137.571-54.127z" fill="url(#SVGID_11_)"/><path d="m202.232 286.733c-10.242-.078-20.482-.178-30.724-.3.066 17.702.178 35.404.337 53.106 56.103 1.614 112.207 1.614 168.31 0-49.732-3.404-97.623-22.414-137.923-52.806z" fill="url(#SVGID_12_)"/><path d="m202.252 202.62c-10.238.093-20.476.213-30.713.36-.079 17.702-.112 35.404-.099 53.107 56.373.135 112.746.135 169.119 0-50.018-4.733-98.186-23.764-138.307-53.467z" fill="url(#SVGID_13_)"/></g></svg>