<svg id="Capa_1" enable-background="new 0 0 512 512" height="512" viewBox="0 0 512 512" width="512" xmlns="http://www.w3.org/2000/svg" xmlns:xlink="http://www.w3.org/1999/xlink"><linearGradient id="SVGID_1_" gradientUnits="userSpaceOnUse" x1="74.981" x2="437.02" y1="437.019" y2="74.98"><stop offset="0" stop-color="#ff4031"/><stop offset="1" stop-color="#ff9ceb"/></linearGradient><radialGradient id="SVGID_2_" cx="256.001" cy="256" gradientUnits="userSpaceOnUse" r="256"><stop offset=".1006" stop-color="#ff4031"/><stop offset=".1969" stop-color="#ff4439" stop-opacity=".893"/><stop offset=".3462" stop-color="#ff4f4f" stop-opacity=".727"/><stop offset=".53" stop-color="#ff6073" stop-opacity=".523"/><stop offset=".7409" stop-color="#ff79a4" stop-opacity=".288"/><stop offset=".9722" stop-color="#ff98e3" stop-opacity=".031"/><stop offset="1" stop-color="#ff9ceb" stop-opacity="0"/></radialGradient><linearGradient id="SVGID_3_" gradientUnits="userSpaceOnUse" x1="119.248" x2="468.369" y1="523.55" y2="174.429"><stop offset=".1229" stop-color="#ffceec"/><stop offset=".3559" stop-color="#ffd4ee"/><stop offset=".68" stop-color="#ffe6f5"/><stop offset="1" stop-color="#fff"/></linearGradient><linearGradient id="SVGID_4_" gradientUnits="userSpaceOnUse" x1="256" x2="256" y1="381.292" y2="425.682"><stop offset="0" stop-color="#ff9caf" stop-opacity=".6"/><stop offset=".1988" stop-color="#ffaec4" stop-opacity=".481"/><stop offset=".4383" stop-color="#ffbcd5" stop-opacity=".337"/><stop offset=".6957" stop-color="#ffc5e0" stop-opacity=".183"/><stop offset="1" stop-color="#ffc8e3" stop-opacity="0"/></linearGradient><linearGradient id="SVGID_5_" gradientUnits="userSpaceOnUse" x1="118.406" x2="469.678" y1="494.558" y2="143.286"><stop offset="0" stop-color="#ffceec"/><stop offset=".5171" stop-color="#ffeaf7"/><stop offset="1" stop-color="#fff"/></linearGradient><linearGradient id="SVGID_6_" gradientUnits="userSpaceOnUse" x1="256" x2="256" y1="351.112" y2="394.822"><stop offset="0" stop-color="#ff9caf" stop-opacity=".6"/><stop offset=".0865" stop-color="#ffa2b6" stop-opacity=".548"/><stop offset=".4282" stop-color="#ffb7cf" stop-opacity=".343"/><stop offset=".7421" stop-color="#ffc4de" stop-opacity=".155"/><stop offset="1" stop-color="#ffc8e3" stop-opacity="0"/></linearGradient><linearGradient id="SVGID_7_" gradientUnits="userSpaceOnUse" x1="288.722" x2="426.145" y1="219.115" y2="356.538"><stop offset="0" stop-color="#ffb5d3"/><stop offset=".2249" stop-color="#ffc3dc"/><stop offset=".7031" stop-color="#ffdaeb"/><stop offset="1" stop-color="#ffe3f1"/></linearGradient><radialGradient id="SVGID_8_" cx="312.375" cy="242.78" gradientUnits="userSpaceOnUse" r="142.291"><stop offset="0" stop-color="#ff9caf"/><stop offset=".8003" stop-color="#ffc8e3" stop-opacity="0"/></radialGradient><linearGradient id="SVGID_9_" gradientUnits="userSpaceOnUse" x1="231.29" x2="348.866" y1="332.521" y2="214.945"><stop offset="0" stop-color="#ffceec"/><stop offset=".8637" stop-color="#fffafd"/><stop offset=".9581" stop-color="#fff"/></linearGradient><linearGradient id="SVGID_10_" gradientUnits="userSpaceOnUse" x1="-81.036" x2="310.31" y1="522.877" y2="131.532"><stop offset="0" stop-color="#ffceec"/><stop offset=".9015" stop-color="#fffafd"/><stop offset="1" stop-color="#fff"/></linearGradient><radialGradient id="SVGID_11_" cx="348.873" cy="275.478" gradientUnits="userSpaceOnUse" r="168.047"><stop offset="0" stop-color="#ff9caf" stop-opacity=".6"/><stop offset=".1977" stop-color="#ff9fb3" stop-opacity=".558"/><stop offset=".4262" stop-color="#ffaec5" stop-opacity=".399"/><stop offset=".7752" stop-color="#ffc1db" stop-opacity=".156"/><stop offset="1" stop-color="#ffc8e3" stop-opacity="0"/></radialGradient><linearGradient id="lg1"><stop offset="0" stop-color="#ff79a2"/><stop offset=".5799" stop-color="#ff9abd" stop-opacity=".594"/><stop offset="1" stop-color="#ffb5d3" stop-opacity=".3"/></linearGradient><radialGradient id="SVGID_12_" cx="376.588" cy="319.504" gradientUnits="userSpaceOnUse" r="89.935" xlink:href="#lg1"/><linearGradient id="lg2"><stop offset="0" stop-color="#ff9ceb" stop-opacity="0"/><stop offset=".1608" stop-color="#ff89c5" stop-opacity=".064"/><stop offset=".4533" stop-color="#ff6a86" stop-opacity=".181"/><stop offset=".7009" stop-color="#ff5358" stop-opacity=".28"/><stop offset=".8907" stop-color="#ff453c" stop-opacity=".356"/><stop offset="1" stop-color="#ff4031" stop-opacity=".4"/></linearGradient><radialGradient id="SVGID_13_" cx="132.446" cy="126.002" gradientUnits="userSpaceOnUse" r="22.738" xlink:href="#lg2"/><radialGradient id="SVGID_14_" cx="379.554" cy="126.002" gradientUnits="userSpaceOnUse" r="22.738" xlink:href="#lg2"/><linearGradient id="SVGID_15_" gradientUnits="userSpaceOnUse" x1="158.698" x2="353.302" y1="230.269" y2="35.665"><stop offset="0" stop-color="#ff9caf"/><stop offset="1" stop-color="#ffc8e3"/></linearGradient><linearGradient id="SVGID_16_" gradientUnits="userSpaceOnUse" x1="165.595" x2="313.393" xlink:href="#lg1" y1="199.954" y2="52.156"/><g><circle cx="256" cy="256" fill="url(#SVGID_1_)" r="256"/><circle cx="256" cy="256" fill="url(#SVGID_2_)" r="256"/><path d="m86.46 369.5c.378 10 .807 20 1.285 30 .404 8.277 7.479 15.315 15.755 15.678 101.667 4.379 203.333 4.379 305 0 8.276-.363 15.352-7.401 15.755-15.678.478-10 .907-20 1.285-30-113.027 3.783-226.053 3.783-339.08 0z" fill="url(#SVGID_3_)"/><path d="m86.46 369.5c.378 10 .807 20 1.285 30 .404 8.277 7.479 15.315 15.755 15.678 101.667 4.379 203.333 4.379 305 0 8.276-.363 15.352-7.401 15.755-15.678.478-10 .907-20 1.285-30-113.027 3.783-226.053 3.783-339.08 0z" fill="url(#SVGID_4_)"/><path d="m85.475 339.5c.278 10 .607 20 .985 30 .318 8.277 7.385 15.254 15.734 15.55 102.538 3.551 205.076 3.551 307.613 0 8.348-.295 15.416-7.272 15.734-15.55.378-10 .707-20 .985-30-113.684 2.783-227.368 2.783-341.051 0z" fill="url(#SVGID_5_)"/><path d="m85.475 339.5c.278 10 .607 20 .985 30 .318 8.277 7.385 15.254 15.734 15.55 102.538 3.551 205.076 3.551 307.613 0 8.348-.295 15.416-7.272 15.734-15.55.378-10 .707-20 .985-30-113.684 2.783-227.368 2.783-341.051 0z" fill="url(#SVGID_6_)"/><path d="m427.057 194.5c.991 48.333.814 96.667-.532 145-.234 8.277-7.279 15.193-15.685 15.421-49.075 1.294-98.15 1.973-147.225 2.036 54.23-54.734 110.07-110.103 163.442-162.457z" fill="url(#SVGID_7_)"/><path d="m427.057 194.5c.991 48.333.814 96.667-.532 145-.234 8.277-7.279 15.193-15.685 15.421-49.075 1.294-98.15 1.973-147.225 2.036 54.23-54.734 110.07-110.103 163.442-162.457z" fill="url(#SVGID_8_)"/><path d="m414.043 226.208c-38.909 38.165-78.755 77.66-118.025 117.128-5.413-44.944-11.178-89.948-17.004-134.977 44.956 5.826 89.978 11.862 135.029 17.849z" fill="url(#SVGID_9_)"/><path d="m85.93 157.5c-1.992 60.667-2.144 121.333-.455 182 .235 8.277 7.279 15.193 15.685 15.421 54.152 1.428 108.303 2.106 162.455 2.036 12.607-.016 24.061-5.241 32.403-13.622 8.337-8.383 13.575-19.932 13.645-32.629.103-18.747.152-37.493.149-56.24-.001-8.473 6.868-15.33 15.357-15.312 18.787.036 37.573.088 56.36.154 12.726.042 24.25-4.999 32.514-13.1 8.264-8.109 13.272-19.292 13.014-31.708-.253-12.333-.582-24.667-.987-37-57.183-16.642-113.985-33.212-170.07-48.588-56.085 15.376-112.888 31.946-170.07 48.588z" fill="url(#SVGID_10_)"/><path d="m85.93 157.5c-1.992 60.667-2.144 121.333-.455 182 .235 8.277 7.279 15.193 15.685 15.421 54.152 1.428 108.303 2.106 162.455 2.036 12.607-.016 24.061-5.241 32.403-13.622 8.337-8.383 13.575-19.932 13.645-32.629.103-18.747.152-37.493.149-56.24-.001-8.473 6.868-15.33 15.357-15.312 18.787.036 37.573.088 56.36.154 12.726.042 24.25-4.999 32.514-13.1 8.264-8.109 13.272-19.292 13.014-31.708-.253-12.333-.582-24.667-.987-37-57.183-16.642-113.985-33.212-170.07-48.588-56.085 15.376-112.888 31.946-170.07 48.588z" fill="url(#SVGID_11_)"/><path d="m396.841 229.284c-12.784-1.006-75.58-13.72-75.569-13.718-20.595-3.713-37.709 14.316-35.126 35.085.035.007 7.286 62.729 8.115 75.475.601 8.673-2.096 16.84-6.516 23.819 2.999-1.886 5.778-4.104 8.271-6.61 8.337-8.383 13.575-19.932 13.645-32.629.103-18.747.152-37.493.149-56.24-.001-8.473 6.868-15.33 15.357-15.312 18.787.036 37.573.088 56.36.154 12.472.041 23.782-4.809 32.007-12.627-5.171 2.033-10.805 3.072-16.693 2.603z" fill="url(#SVGID_12_)" opacity=".6"/><path d="m131.807 148.767c-12.609.274-22.524-9.581-22.05-22.072.474-12.49 11.021-23.029 23.459-23.451 12.44-.421 22.228 9.555 21.926 22.188-.305 12.637-10.724 23.057-23.335 23.335z" fill="url(#SVGID_13_)"/><path d="m380.193 148.767c-12.609-.279-23.03-10.698-23.336-23.335-.301-12.635 9.486-22.609 21.926-22.188 12.437.422 22.986 10.961 23.459 23.451.475 12.492-9.442 22.346-22.049 22.072z" fill="url(#SVGID_14_)"/><path d="m408.5 96.822c-101.667-4.379-203.333-4.379-305 0-8.276.363-15.353 7.401-15.755 15.678-.718 15-1.323 30-1.815 45 113.38-3.283 226.76-3.283 340.141 0-.493-15-1.098-30-1.815-45-.404-8.277-7.48-15.315-15.756-15.678zm-276.492 44.358c-8.39.2-14.983-6.381-14.686-14.728.297-8.346 7.312-15.356 15.626-15.621 8.316-.265 14.852 6.37 14.631 14.779-.222 8.411-7.18 15.369-15.571 15.57zm247.984 0c-8.39-.201-15.349-7.158-15.571-15.569-.221-8.411 6.316-15.044 14.631-14.779 8.314.264 15.328 7.276 15.626 15.621.298 8.346-6.297 14.927-14.686 14.727z" fill="url(#SVGID_15_)"/><path d="m163.5 94.746c-20 .523-40 1.215-60 2.076-8.276.363-15.353 7.401-15.755 15.678-.718 15-1.323 30-1.815 45 98.15-2.843 196.3-3.224 294.45-1.145-8.517-1.195-17.03-2.378-25.537-3.545-67.206-9.168-132.616-29.274-191.343-58.064zm-31.492 46.434c-8.39.2-14.983-6.381-14.686-14.728.297-8.346 7.312-15.356 15.626-15.621 8.316-.265 14.852 6.37 14.631 14.779-.222 8.411-7.18 15.369-15.571 15.57z" fill="url(#SVGID_16_)" opacity=".6"/></g></svg>