<svg id="Capa_1" enable-background="new 0 0 512 512" height="512" viewBox="0 0 512 512" width="512" xmlns="http://www.w3.org/2000/svg" xmlns:xlink="http://www.w3.org/1999/xlink"><linearGradient id="SVGID_1_" gradientUnits="userSpaceOnUse" x1="74.981" x2="437.019" y1="437.019" y2="74.981"><stop offset="0" stop-color="#ff726d"/><stop offset="1" stop-color="#ffde00"/></linearGradient><radialGradient id="SVGID_2_" cx="257.014" cy="280.338" gradientUnits="userSpaceOnUse" r="256"><stop offset="0" stop-color="#ff726d"/><stop offset=".2243" stop-color="#ff7966" stop-opacity=".765"/><stop offset=".5582" stop-color="#ff8e51" stop-opacity=".415"/><stop offset=".9537" stop-color="#ffae31" stop-opacity="0"/></radialGradient><linearGradient id="SVGID_3_" gradientUnits="userSpaceOnUse" x1="160.915" x2="386.641" y1="255.304" y2="29.578"><stop offset="0" stop-color="#fcb000"/><stop offset=".344" stop-color="#fdce62"/><stop offset=".6655" stop-color="#fee8b6"/><stop offset=".8906" stop-color="#fff9eb"/><stop offset="1" stop-color="#fff"/></linearGradient><linearGradient id="SVGID_4_" gradientUnits="userSpaceOnUse" x1="256" x2="256" y1="206.933" y2="130.099"><stop offset="0" stop-color="#fca200" stop-opacity=".5"/><stop offset=".1286" stop-color="#fca405" stop-opacity=".436"/><stop offset=".2743" stop-color="#fca812" stop-opacity=".363"/><stop offset=".4283" stop-color="#fcb029" stop-opacity=".286"/><stop offset=".5881" stop-color="#fdbc49" stop-opacity=".206"/><stop offset=".7524" stop-color="#fdca72" stop-opacity=".124"/><stop offset=".9181" stop-color="#fedba3" stop-opacity=".041"/><stop offset="1" stop-color="#fee5be" stop-opacity="0"/></linearGradient><linearGradient id="SVGID_5_" gradientUnits="userSpaceOnUse" x1="50.862" x2="499.117" y1="500.218" y2="51.963"><stop offset="0" stop-color="#fcb000"/><stop offset=".2136" stop-color="#fdc749"/><stop offset=".4253" stop-color="#fedb8a"/><stop offset=".6156" stop-color="#feeabc"/><stop offset=".7808" stop-color="#fff6e1"/><stop offset=".9145" stop-color="#fffcf7"/><stop offset="1" stop-color="#fff"/></linearGradient><linearGradient id="SVGID_6_" gradientUnits="userSpaceOnUse" x1="97.774" x2="306.137" y1="446.465" y2="238.102"><stop offset="0" stop-color="#fca200"/><stop offset=".0848" stop-color="#fca509"/><stop offset=".2246" stop-color="#fcae22"/><stop offset=".4018" stop-color="#fdbd4b"/><stop offset=".6097" stop-color="#fed283"/><stop offset=".8405" stop-color="#feecca"/><stop offset="1" stop-color="#fff"/></linearGradient><g><circle cx="256" cy="256" fill="url(#SVGID_1_)" r="256"/><circle cx="256" cy="256" fill="url(#SVGID_2_)" r="256"/><path d="m393.657 141.567c-45.885-1.27-91.771-1.905-137.656-1.905-11.318-12.156-22.546-24.274-33.642-36.317-5.627-6.105-13.47-9.5-21.731-9.367-26.876.428-53.751 1.168-80.627 2.219-16.536.673-30.694 14.765-31.422 31.303-1.061 25-1.813 50-2.255 75 113.118-1.783 226.236-1.783 339.354 0-.177-10-.403-20-.679-30-.474-16.538-14.596-30.444-31.342-30.933z" fill="url(#SVGID_3_)"/><path d="m393.657 141.567c-45.885-1.27-91.771-1.905-137.656-1.905-11.318-12.156-22.546-24.274-33.642-36.317-5.627-6.105-13.47-9.5-21.731-9.367-26.876.428-53.751 1.168-80.627 2.219-16.536.673-30.694 14.765-31.422 31.303-1.061 25-1.813 50-2.255 75 113.118-1.783 226.236-1.783 339.354 0-.177-10-.403-20-.679-30-.474-16.538-14.596-30.444-31.342-30.933z" fill="url(#SVGID_4_)"/><path d="m86.323 202.5c-1.131 64-.233 128 2.696 192 .517 11.032 9.95 20.423 20.981 20.897 97.333 4.087 194.667 4.087 292 0 11.032-.474 20.464-9.866 20.981-20.897 2.928-64 3.827-128 2.696-192-.304-16.54-14.371-30.32-31.221-30.686-92.304-1.868-184.609-1.868-276.913 0-16.849.366-30.916 14.146-31.22 30.686z" fill="url(#SVGID_5_)"/><path d="m133.275 288.221c-17.145-16.995-33.047-35.066-47.346-54.021-.385 53.433.645 106.867 3.09 160.3.517 11.036 9.946 20.423 20.981 20.897 80.397 3.376 160.793 3.963 241.19 1.762-80.415-21.369-156.453-68.224-217.915-128.938z" fill="url(#SVGID_6_)"/></g></svg>